<?xml version="1.0" encoding="utf-8"?>
<!-- Generator: Adobe Illustrator 24.1.2, SVG Export Plug-In . SVG Version: 6.00 Build 0)  -->
<svg version="1.1" xmlns="http://www.w3.org/2000/svg" xmlns:xlink="http://www.w3.org/1999/xlink" x="0px" y="0px"
	 viewBox="0 0 770 770" style="enable-background:new 0 0 770 770;" xml:space="preserve">
<style type="text/css">
	.st0{fill:#FFFFFF;}
	.st1{fill:#005484;}
	.st2{fill:#1D1D1B;}
	.st3{fill:#B11E29;}
</style>
<g id="Outer">
	<g id="Blue_ring">
		<circle class="st0" cx="385" cy="385" r="375"/>
		<path class="st1" d="M385,10c207.1,0,375,167.9,375,375S592.1,760,385,760S10,592.1,10,385S177.9,10,385,10 M385,0
			C172.3,0.1,0,172.7,0.1,385.3c0.1,154.6,92.6,294.1,235,354.4c196,82.6,421.8-9.2,504.5-205.2c82.6-195.8-9.1-421.5-204.7-504.3
			C487.5,10.2,436.5-0.1,385,0z"/>
	</g>
</g>
<g id="New_Text">
</g>
<g id="Old_Text">
	<g id="Text">
		<g id="Top">
			<path class="st1" d="M41.1,315.5l4.2-18.5c1.2-5.3,2.9-9,5-11.2c2-2.2,5.1-3,8-2.2l-2.5,10.9c-0.8-0.3-1.8-0.1-2.4,0.5
				c-0.8,1.2-1.3,2.6-1.5,4L48,315.9c-0.3,1.2-0.4,2.5-0.2,3.8c0.3,1,1.2,1.7,2.2,1.8c1,0.3,2.1,0,2.7-0.8c0.6-1.1,1-2.3,1.2-3.5
				l4.8-18.5c1.2-5.2,2.5-8.6,4.1-10.3c2-2.1,5-2.7,9.2-1.7c3.6,0.8,6,2.5,7.1,4.9c1.1,2.5,1,6.3-0.1,11.5L74.2,324
				c-1.2,5.2-2.8,8.7-4.7,10.5c-2,1.8-4.6,2.3-7.9,1.5l2.3-10.2c0.9,0.2,1.8-0.2,2.3-0.9c0.8-1,1.3-2.2,1.6-3.4l3.8-16.8
				c0.5-1.7,0.6-3.5,0.4-5.2c-0.2-1.1-1.2-2-2.3-2.1c-1.1-0.3-2.2-0.1-3,0.7c-0.9,0.9-1.6,2.7-2.2,5.4l-4.2,16
				c-1.4,6.1-2.8,10-4.3,11.7c-1.8,2-4.7,2.6-8.6,1.7c-3.5-0.8-5.8-2.5-6.7-5.2C39.7,325,39.9,321,41.1,315.5z"/>
			<path class="st1" d="M68.9,230.3l6.4,2.6l-6.8,16.8l25.3,10.2l-3.8,9.5l-25.3-10.2l-6.8,16.8l-6.4-2.6L68.9,230.3z"/>
			<path class="st1" d="M82.8,205.6l8.6-13.9l40.7-1l-6.3,10.2l-9.8,0.2l-13.7,22.3l4.2,8.8l-6.3,10.3L82.8,205.6z M92.8,201.7
				l-0.3,0.4l6.4,13.9l9-14.6L92.8,201.7z"/>
			<path class="st1" d="M160.4,149l5.3,4.7l-6.9,7.7l-4-3.5c-2.4-2.2-5.2-1.5-8.3,2L133,175.1l7.6,6.8l-6.9,7.8l-25.5-22.7
				l21.3-23.9c3.7-4.2,7-6.7,9.9-7.4c2.8-0.7,5.8,0.3,8.7,2.9l1.8,1.6c1.2,1,2.3,2.2,3,3.6c0.5,1.2,0.5,2.5,0.1,3.8
				c1-0.7,2.2-1,3.4-0.8C158,147.1,159.3,147.9,160.4,149z M142.3,147.3l-0.5-0.5c-0.7-0.8-1.8-1.2-2.8-1c-1.3,0.5-2.4,1.4-3.3,2.5
				l-14.6,16.4l5.8,5.1l14.8-16.6c1-0.9,1.6-2.1,2-3.4C143.6,148.8,143.2,147.8,142.3,147.3L142.3,147.3z"/>
			<path class="st1" d="M148.4,123.4l34.2-27.8l4.3,5.3l-26.2,21.3l4,4.9l25.3-20.6l4.3,5.3l-25.3,20.6l9,11l-8,6.5L148.4,123.4z"/>
			<path class="st1" d="M191.1,90l8.9-5.3l14,23.5l22.8-13.6l3.5,5.9l-31.7,18.9L191.1,90z"/>
			<path class="st1" d="M232.5,66l40.8-16.8l2.6,6.3l-31.3,12.9l2.4,5.8l30.2-12.4l2.6,6.3l-30.2,12.4l2.8,6.8l31.3-12.9l2.6,6.3
				l-40.8,16.8L232.5,66z"/>
			<path class="st1" d="M284.5,45.7l42.9-10l1.6,6.7L296.1,50l1.4,6.1l31.8-7.4l1.6,6.7l-31.8,7.4l1.7,7.2l32.9-7.7l1.6,6.7
				l-42.9,10L284.5,45.7z"/>
			<path class="st1" d="M382.8,30.9l0.5,6.9l-18.1,1.3l2,27.2L357,67.1l-2-27.2l-18.1,1.3l-0.5-6.9L382.8,30.9z"/>
			<path class="st1" d="M440,70.6c-7.8-1.5-12.8-3.5-15.2-5.9c-2.3-2.4-2.9-6.4-1.9-12l0.8-4.2c1.2-6.4,3.4-10.3,6.6-11.7
				c2.9-1.3,8.4-1.2,16.5,0.4l9,1.7c8.4,1.6,13.8,3.4,16.2,5.4c2.4,2,3.2,5.3,2.2,10l-10.4-2c0.4-1.2-0.1-2.6-1.1-3.3
				c-1.3-1-4.3-1.9-8.8-2.8l-7.9-1.5c-4.7-0.9-7.7-1.1-9.1-0.5c-1.3,0.6-2.4,2.6-3,6.2l-0.7,3.7c-0.6,3.2-0.4,5.4,0.6,6.5
				c1,1.1,3.8,2.1,8.2,2.9l8.3,1.6c4.5,0.9,7.5,1.2,8.9,0.9c1.4-0.3,2.3-1.4,2.6-3.2l10.5,2c-0.9,4.6-2.7,7.5-5.4,8.5
				c-3.1,1.1-9,0.9-17.8-0.8L440,70.6z"/>
			<path class="st1" d="M501.5,88.2l-8.5-3.3c-7.7-3-12.5-5.8-14.3-8.5c-1.8-2.7-1.6-6.8,0.5-12.3l1.5-3.9c2.3-5.9,5-9.4,8.2-10.3
				c3.2-1,8.7,0.1,16.6,3.1l8.5,3.3c8.2,3.2,13.3,6.2,15.2,9.2c1.9,2.9,1.7,7.3-0.6,13.1l-1.5,3.9c-2.2,5.8-4.9,9-8.1,9.7
				C515.8,92.7,510,91.4,501.5,88.2z M510.8,63.3l-7.2-2.8c-4.5-1.7-7.5-2.4-9.1-2c-1.6,0.4-3,2.3-4.2,5.5l-1.3,3.3
				c-1.1,2.9-1.2,5-0.4,6.3c0.9,1.3,3.4,2.8,7.7,4.5l7.7,3c4.7,1.8,7.9,2.6,9.4,2.2c1.6-0.3,2.9-2,4.1-5.1l1.3-3.3
				c1.2-3.2,1.4-5.5,0.5-6.9C518.4,66.7,515.6,65.1,510.8,63.3z"/>
			<path class="st1" d="M545.4,69l13.4,8.6l1.3,30.8l29-11.3l13,8.4l-18.5,28.7l-8.7-5.6l13.6-21.1L559.9,119l-9.4-6l-1.4-30.8
				l-13.6,21.1l-8.6-5.5L545.4,69z"/>
			<path class="st1" d="M612.6,114.2l11.1,11.4L618,156l30.8-4.4l10.8,11.1L635,186.5l-7.2-7.4l18.1-17.5l-30.5,4.6l-7.8-8l5.6-30.3
				l-18,17.5l-7.1-7.3L612.6,114.2z"/>
			<path class="st1" d="M676.8,189l8.7,13.8l-17.1,37l-6.4-10.2l4.1-8.9l-14-22.1l-9.7,0l-6.4-10.2L676.8,189z M676,199.7l-0.3-0.4
				l-15.3-0.4l9.2,14.5L676,199.7z"/>
			<path class="st1" d="M700.8,229.3l5.7,14.3l-12.3,32.1l21.7-8.7l3.9,9.7L688,289.4l-4.6-11.5l13.2-35.9l-23.8,9.5l-3.8-9.5
				L700.8,229.3z"/>
			<path class="st1" d="M729.4,318.4c1.4,6.6,1.4,11.4,0,14.4c-1.4,3-4.6,5-9.6,6.1l-6.5,1.3c-5.3,1.1-9.2,0.7-11.6-1.3
				c-2.4-2-4.3-6.2-5.6-12.7l-6.4-30.8l33.5-7L729.4,318.4z M702.3,322.4c0.8,3.7,1.8,6.1,3,7.1c1.3,1,3.3,1.2,6.3,0.6l5.6-1.2
				c2.7-0.6,4.4-1.5,5.1-3c0.8-1.6,0.8-4.1,0.1-7.7l-3.8-18.1l-20.1,4.2L702.3,322.4z"/>
		</g>
		<g id="Bottom">
			<path class="st1" d="M49.2,470l0.8,4.1c1,4.8,2.1,7.7,3.3,8.6c1.2,0.9,3.9,1,8.1,0.1l14.2-2.9l0.6,2.8l-14.2,2.9
				c-5,1-8.4,0.8-10.2-0.5c-1.9-1.4-3.4-4.8-4.5-10.3l-0.8-4.1c-1.1-5.6-1.1-9.4,0-11.4c1.2-2,4.2-3.5,9.2-4.6l14.2-2.9l0.6,2.8
				l-14.2,2.9c-4.2,0.9-6.6,2-7.4,3.3C48.1,462.1,48.2,465.2,49.2,470z"/>
			<path class="st1" d="M78.1,489l2.1,5.9l-15.8,27.5l22.6-7.9l0.9,2.7L62.7,526l-1.3-3.8l16.2-28.4l-0.5-1.4l-23.3,8.1l-0.9-2.7
				L78.1,489z"/>
			<path class="st1" d="M67.5,536.3l24.4-11l1.2,2.6l-24.4,11L67.5,536.3z"/>
			<path class="st1" d="M110.2,560.5l-2.4,1.3l-6.4-11.5l-21,11.6l-1.4-2.5l21-11.6l-6.4-11.5L96,535L110.2,560.5z"/>
			<path class="st1" d="M113.4,565.4l13.9,19.6l-2.3,1.6l-12.3-17.3l-7.2,5.1l11.9,16.8l-2.3,1.6L103.4,576l-7.8,5.6l12.3,17.3
				l-2.3,1.6l-13.9-19.6L113.4,565.4z"/>
			<path class="st1" d="M112.1,609l19.9-17.9l12,13.4c3.3,3.7,4.9,6.7,4.8,9.1c-0.1,2.4-1.9,5.3-5.6,8.5l-1.6,1.4
				c-3.7,3.4-6.7,5-8.9,4.9c-2.2-0.1-4.9-2-8.1-5.5L112.1,609z M139.8,621.5l1.6-1.5c3-2.7,4.5-4.9,4.6-6.5c0.1-1.7-1.2-4-3.8-6.8
				l-10.4-11.6l-15.8,14.2l10.9,12.1c2.6,2.9,4.6,4.3,6,4.3C134.4,625.7,136.7,624.3,139.8,621.5L139.8,621.5z"/>
			<path class="st1" d="M174.3,633.6l19.1,14.7l-1.7,2.2l-16.8-12.9l-5.4,7l16.3,12.5l-1.7,2.2l-16.3-12.5l-7.6,9.8l-2.2-1.7
				L174.3,633.6z"/>
			<path class="st1" d="M199.5,652.5l20.4,12.7l-1.5,2.4l-18-11.2l-4.7,7.5l17.5,10.9l-1.5,2.4l-17.5-10.9l-5.1,8.2l18,11.2
				l-1.5,2.4l-20.4-12.7L199.5,652.5z"/>
			<path class="st1" d="M215.1,693.2l11.6-24.1l16.2,7.8c4.4,2.1,7.1,4.3,7.9,6.6c0.9,2.3,0.2,5.6-1.9,10l-0.9,1.9
				c-2.2,4.5-4.3,7.2-6.4,7.9c-2.1,0.7-5.3,0.1-9.6-2L215.1,693.2z M245.5,694.3l1-2c1.7-3.6,2.3-6.2,1.8-7.8
				c-0.6-1.6-2.6-3.2-6.1-4.9l-14-6.8l-9.2,19.1l14.7,7.1c3.5,1.7,5.9,2.2,7.2,1.7C242,700.2,243.6,698.1,245.5,694.3z"/>
			<path class="st1" d="M260.6,684.8l22.6,8.1l-0.9,2.6l-20-7.1l-3,8.3l19.4,6.9l-0.9,2.6l-19.4-6.9l-3.2,9.1l20,7.1l-0.9,2.6
				l-22.6-8.1L260.6,684.8z"/>
			<path class="st1" d="M316.9,708.9c-0.2,1.3-0.8,2.5-1.6,3.5c-0.6,0.6-1.3,0.9-2.1,1c1,0.5,1.7,1.3,2.1,2.3
				c0.6,1.6,0.6,3.4,0.1,5.1l-1.9,7.6l-3-0.7l1.9-7.6c0.4-1.7,0.3-3-0.3-3.8c-0.6-0.8-2-1.5-4.3-2.1l-18.1-4.4l-2.9,12l-2.7-0.7
				l6.3-26l19.3,4.7c3.1,0.8,5.2,1.8,6.3,3.3C317.2,704.7,317.5,706.6,316.9,708.9z M290.5,707l17,4.2c2,0.5,3.5,0.5,4.6,0
				c1.1-0.5,1.8-1.5,2-2.7c0.3-1.1,0.1-2.4-0.5-3.3c-1-1.1-2.4-1.9-3.8-2.1l-17.3-4.2L290.5,707z"/>
			<path class="st1" d="M338.6,705.2l4.3,0.6l10.4,28.4l-3.3-0.4l-2.5-6.8l-19.1-2.5l-4.2,5.9l-3.1-0.4L338.6,705.2z M340.5,707.4
				l-10.1,14.4l16.1,2.1L340.5,707.4z"/>
			<path class="st1" d="M389.9,708.6l-0.1,2.8l-13.2-0.4l-0.7,24l-2.8-0.1l0.7-24l-13.2-0.4l0.1-2.8L389.9,708.6z"/>
			<path class="st1" d="M398.7,734.8l-1.1-26.7l2.8-0.1l1.1,26.7L398.7,734.8z"/>
			<path class="st1" d="M426.2,732.8c-5.6,0.7-9.4,0.3-11.3-1c-1.9-1.3-3.1-4.5-3.7-9.6l-0.3-2.3c-0.6-5.1-0.1-8.5,1.4-10.2
				c1.5-1.7,5.1-2.9,10.8-3.6l4.3-0.5c5.6-0.7,9.3-0.3,11.2,1c1.9,1.3,3.1,4.5,3.7,9.6l0.3,2.3c0.6,5,0.1,8.4-1.4,10.1
				c-1.5,1.7-5.1,2.9-10.7,3.6L426.2,732.8z M439.8,718.9l-0.3-2.3c-0.5-4.3-1.4-6.8-2.7-7.7c-1.3-0.9-4.4-1-9.2-0.5l-4.2,0.5
				c-4.8,0.6-7.8,1.4-8.9,2.6c-1.1,1.2-1.3,3.9-0.8,8.2l0.3,2.3c0.5,4.2,1.4,6.8,2.7,7.7c1.3,0.9,4.4,1,9.2,0.5l4.2-0.5
				c4.8-0.6,7.8-1.4,8.8-2.6C440,725.8,440.3,723.1,439.8,718.9z"/>
			<path class="st1" d="M447.5,702.9l6.1-1.4l25.7,18.6l-5.4-23.3l2.7-0.6l6.1,26.1l-3.9,0.9L452.2,704l-1.5,0.3l5.6,24l-2.7,0.6
				L447.5,702.9z"/>
			<path class="st1" d="M527.8,706c-5.2,2.3-8.9,3-11.1,2.3c-2.2-0.7-4.3-3.4-6.4-8.1l-0.9-2.1c-2-4.7-2.6-8.1-1.6-10.2
				c1-2.1,4-4.3,9.2-6.6l3.9-1.7c5.2-2.3,8.9-3,11-2.3c2.2,0.7,4.3,3.4,6.4,8.1l0.9,2.1c2,4.6,2.6,8,1.6,10.1c-1,2.1-4,4.3-9.2,6.6
				L527.8,706z M536.7,688.7l-0.9-2.1c-1.7-3.9-3.3-6.1-4.8-6.6s-4.5,0.3-8.9,2.2l-3.9,1.7c-4.5,2-7,3.6-7.7,5.1
				c-0.7,1.4-0.1,4.1,1.6,8l0.9,2.1c1.7,3.9,3.3,6.1,4.8,6.5c1.5,0.5,4.5-0.3,9-2.2l3.9-1.7c4.5-2,7-3.6,7.7-5
				C538.9,695.3,538.4,692.6,536.7,688.7z"/>
			<path class="st1" d="M539.4,671l20.9-11.9l1.4,2.4L543.2,672l4.4,7.7l17.8-10.2l1.4,2.4L549,682.1l6.1,10.8l-2.4,1.4L539.4,671z"
				/>
			<path class="st1" d="M610.9,629.5l1,1.2c1.3,1.4,1.9,3.4,1.6,5.4c-0.4,1.8-1.8,3.8-4.2,5.8l-12.1,10.1l7.3,8.8l-2.3,1.9
				l-17.1-20.6l14.4-12c2.4-2,4.5-3,6.4-3C607.9,627,609.8,628,610.9,629.5z M589.2,642.3l6.2,7.5l12-10c1.8-1.5,2.8-2.8,3.1-3.9
				c0.2-1.2-0.1-2.5-1-3.3l-0.8-1c-0.7-1-1.8-1.6-3-1.6c-1.2,0.1-2.7,0.8-4.5,2.3L589.2,642.3z"/>
			<path class="st1" d="M611.6,619.4l2-2l17.2,16.7l14.2-14.6l2,1.9l-16.2,16.6L611.6,619.4z"/>
			<path class="st1" d="M639.8,588.2l2.7-3.4l29.7,5.5l-2,2.6l-7.1-1.3l-11.9,15.1l3,6.6l-2,2.5L639.8,588.2z M642.7,587.7l7.3,16
				l10-12.8L642.7,587.7z"/>
			<path class="st1" d="M654,569.5l3.2-5.3l31.3-5.4L668,546.4l1.5-2.4l22.9,13.8l-2.1,3.5l-32.2,5.6l-0.8,1.3l21.1,12.7l-1.5,2.4
				L654,569.5z"/>
			<path class="st1" d="M672.5,537.7l9.9-21.9l2.5,1.1l-8.8,19.3l8,3.6l8.5-18.7l2.5,1.1l-8.5,18.7l8.8,4l8.8-19.3l2.5,1.1
				l-9.9,21.9L672.5,537.7z"/>
			<path class="st1" d="M693.7,482.5l2.6,0.8l-4.1,12.6l22.8,7.4l-0.9,2.7l-22.8-7.4l-4.1,12.6l-2.6-0.9L693.7,482.5z"/>
			<path class="st1" d="M696.6,469.1l2.6-13.9c1.1-6,4.2-8.6,9.1-7.7l-0.5,2.8c-1.3-0.4-2.7-0.1-3.7,0.8c-1,0.9-1.8,2.7-2.3,5.2
				l-2.5,13.5c-0.4,2-0.3,3.5,0.3,4.4c0.8,0.9,1.9,1.5,3.1,1.6c1.7,0.3,2.9,0,3.6-0.8c0.8-0.9,1.4-3,2.1-6.3l1.7-8.2
				c0.9-4.8,2-8,3.5-9.5c1.4-1.5,3.5-2,6.2-1.5c2.7,0.5,4.5,1.5,5.4,3.1c0.9,1.6,1,3.9,0.4,7l-2.6,13.7c-0.3,2.3-1.4,4.5-3,6.1
				c-1.7,1.3-3.9,1.8-6,1.2l0.5-2.8c1.3,0.4,2.7,0.1,3.7-0.8c1-0.9,1.8-2.6,2.3-5.2l2.4-12.6c0.4-1.6,0.4-3.3-0.2-4.9
				c-0.5-1.1-1.7-1.8-3.4-2.1c-1.7-0.3-3,0-3.8,0.9c-0.9,1.1-1.7,3.5-2.4,7.1l-2,9.3c-0.8,4.2-1.9,6.9-3.2,8.1
				c-1.2,1.1-3.1,1.4-5.6,0.9c-2.5-0.5-4.1-1.5-5-3C696.3,474,696.1,471.9,696.6,469.1z"/>
		</g>
	</g>
</g>
<g id="Inner">
	<g id="Total">
		<path id="Black_ring" class="st2" d="M385,87.1C220.5,87.1,87.1,220.5,87.1,385S220.5,682.9,385,682.9S682.9,549.5,682.9,385
			S549.5,87.1,385,87.1z M385,659.6c-151.7,0-274.6-122.9-274.6-274.6S233.3,110.4,385,110.4S659.6,233.3,659.6,385
			S536.7,659.6,385,659.6z"/>
		<circle id="Blue_circle" class="st1" cx="385" cy="385" r="265"/>
		<g id="Stars">
			<path class="st0" d="M598.8,417c0-17.9-14.6-32.5-32.5-32.5l0,0c17.9,0,32.5-14.6,32.5-32.5c0,17.9,14.6,32.5,32.5,32.5
				C613.3,384.5,598.8,399.1,598.8,417L598.8,417z"/>
			<path class="st0" d="M385,630.8c0-17.9-14.6-32.5-32.5-32.5c17.9,0,32.5-14.6,32.5-32.5c0,17.9,14.6,32.5,32.5,32.5
				C399.6,598.3,385,612.9,385,630.8z"/>
			<path class="st0" d="M206.1,290.3c0-16.6-13.4-30-30-30l0,0c16.6,0,30-13.4,30-30c0,16.6,13.4,30,30,30
				C219.5,260.3,206.1,273.7,206.1,290.3L206.1,290.3z"/>
			<path class="st0" d="M522,236.6c0-11-9-20-20-20c11,0,20-9,20-20c0,11,9,20,20,20C530.9,216.6,522,225.5,522,236.6z"/>
		</g>
		<g id="Emblem">
			<path id="e20fcdd7-f573-40cc-8b28-d88e4f693c7e" class="st0" d="M509.8,342.7c-2.8,2.6-5.7,5.2-8.7,7.8
				c17.1,58.8,28.6,119.1,34.3,180c0,0-51.5-93.1-77.3-100.9v-41.1c-18.7,16.3-39.3,33.9-61.8,52.9c-55.2,46.2-116,81.5-163.2,96.1
				c-4.2,37.2-6.6,74.5-7,112c0,1.1,0.9,2,1.9,2c0.6,0,1.2-0.3,1.6-0.8c23.9-32.5,161.1-215.7,221.8-210.6
				c28.3,8.6,97.3,134.5,97.3,134.5C548.9,512.6,535.3,428.8,509.8,342.7z"/>
			<path id="ff4fd6d3-b9d8-4f98-99f8-7bc6432adf7b" class="st0" d="M458.2,231.5c14.8,34.1,27.7,69,38.6,104.5l9-6.5
				c-27.2-88.1-66.4-177.3-116-247c-1.9-2.7-5.6-3.3-8.3-1.4c-0.5,0.4-1,0.9-1.4,1.4c-72.4,102.6-122.9,276-144.1,423.5l138.7-82.2
				l83.4-60L458.2,231.5z M383.7,372.3h-0.5l-26,21.5l2.3-39.9l-26.8-22.5h28.3l22.5-212.5l22.5,212.5h28.3l-26.8,22.5l2.3,39.9
				L383.7,372.3z"/>
		</g>
		<path id="Swoosh" class="st3" d="M632.5,222.7c0,0-52.5,55.1-231.4,189.5c-107.9,81.1-211.2,125-241.1,89.2
			c-26.5-31.7,17.4-113.2,99.8-191.5c0,0-81.8,99.8-78.6,143c0.6,7.8,6.5,14,14.2,15.1C318.3,484.5,632.5,222.7,632.5,222.7z"/>
		<g id="Inner_circle">
			<path id="b49277a0-95a4-4bad-80c5-3dbfb98dfa5c" class="st0" d="M444.4,174.5c1.4,2.8,2.8,5.7,4.2,8.5c6.3,2,12.6,4.3,18.8,6.9
				c41,17.4,75.5,47.2,98.7,85.3c1.9-1.4,3.8-2.9,5.6-4.3C542.9,224,497.5,189.5,444.4,174.5z"/>
			<path id="b3978e94-624b-404f-8061-9672e6db4b9f" class="st0" d="M325.3,181.8c1.2-2.8,2.5-5.5,3.7-8.3
				c-93.7,24.7-162.8,110-162.8,211.5c0,12.5,1.1,25,3.2,37.4c1.7-3.3,3.6-6.6,5.6-9.9c-1.2-9.1-1.8-18.3-1.8-27.4
				C173.3,291,235.2,208.3,325.3,181.8z"/>
			<g id="b9a59adf-b127-4a30-a702-2bc61bb4e1e0">
				<path class="st0" d="M596.7,385c0.1,50.3-17.9,99-50.5,137.3c0.3,3.2,0.6,6.4,0.9,9.6c63.9-70.4,74.9-174.1,27.3-256.4
					c-1.8,1.5-3.6,3-5.4,4.6C587.2,312,596.8,348.2,596.7,385z"/>
				<path class="st0" d="M529.1,540.1c-61.1,56.7-149.7,72.4-226.5,40c-4.4-1.9-8.7-3.8-12.9-6c-1.5,1.8-3.1,3.7-4.6,5.5
					c81.4,41.7,180.2,28.4,247.6-33.4C531.6,544.3,530.4,542.2,529.1,540.1z"/>
			</g>
		</g>
	</g>
</g>
</svg>
