<?xml version="1.0" encoding="utf-8"?>
<!-- Generator: Adobe Illustrator 16.0.0, SVG Export Plug-In . SVG Version: 6.00 Build 0)  -->
<!DOCTYPE svg PUBLIC "-//W3C//DTD SVG 1.1//EN" "http://www.w3.org/Graphics/SVG/1.1/DTD/svg11.dtd">
<svg version="1.1" id="Layer_1" xmlns="http://www.w3.org/2000/svg" xmlns:xlink="http://www.w3.org/1999/xlink" x="0px" y="0px"
	 width="165.25px" height="57.5px" viewBox="4.7 7.25 165.25 57.5" enable-background="new 4.7 7.25 165.25 57.5"
	 xml:space="preserve">
<path fill="#AB5826" d="M11.158,28.27c11.551,0,23.102,0,34.652,0c0,7.695,0,15.391,0,23.203c-1.349,0-2.536,0-3.817,0
	c0,1.355,0,2.594,0,3.832l0.018-0.018c-1.264,0-2.527,0-3.876,0c0,1.406,0,2.642,0,3.876l0.018-0.018c-6.445,0-12.891,0-19.336,0
	l0.018,0.018c0-1.264,0-2.527,0-3.876c-1.406,0-2.642,0-3.876,0l0.018,0.018c0-1.264,0-2.527,0-3.876c-1.406,0-2.642,0-3.876,0
	l0.018,0.018C11.131,43.721,11.144,35.995,11.158,28.27z"/>
<path fill="#BCBCBB" d="M18.831,16.706c1.229,0,2.459,0,3.776,0c0,1.289,0,2.466,0,3.844c-1.258,0-2.517,0-3.776,0l0.015,0.015
	c0-1.291,0-2.582,0-3.873L18.831,16.706z"/>
<path fill="#BCBCBB" d="M38.123,16.706c1.23,0,2.46,0,3.776,0c0,1.289,0,2.466,0,3.844c-1.258,0-2.517,0-3.776,0l0.016,0.015
	c0-1.291,0-2.582,0-3.873L38.123,16.706z"/>
<path fill="#BCBCBB" d="M18.831,20.55c0,1.231,0,2.465,0,3.78c-1.3,0-2.479,0-3.754,0c0-1.198,0-2.377,0-3.766
	c1.245,0,2.507,0,3.769,0L18.831,20.55z"/>
<path fill="#BCBCBB" d="M38.123,20.55c0,1.232,0,2.465,0,3.78c-1.3,0-2.478,0-3.754,0c0-1.198,0-2.377,0-3.766
	c1.245,0,2.507,0,3.77,0L38.123,20.55z"/>
<path fill="#BCBCBB" d="M38.137,16.691c-1.229,0-2.46,0-3.776,0c0-1.29,0-2.466,0-3.844c1.258,0,2.518,0,3.776,0l-0.015-0.015
	c0,1.291,0,2.582,0,3.873L38.137,16.691z"/>
<path fill="#BCBCBB" d="M18.831,12.833c0,1.291,0,2.582,0,3.873l0.015-0.015c-1.229,0-2.459,0-3.776,0c0-1.29,0-2.466,0-3.844
	c1.258,0,2.518,0,3.776,0L18.831,12.833z"/>
<path fill="#BCBCBB" d="M38.137,12.848c0-1.232,0-2.465,0-3.78c1.3,0,2.479,0,3.755,0c0,1.198,0,2.378,0,3.766
	c-1.245,0-2.508,0-3.77,0L38.137,12.848z"/>
<path fill="#BCBCBB" d="M18.845,12.848c0-1.232,0-2.465,0-3.78c1.3,0,2.478,0,3.755,0c0,1.198,0,2.378,0,3.766
	c-1.246,0-2.508,0-3.77,0L18.845,12.848z"/>
<g>
	<path fill="#333333" d="M41.993,55.305c0-1.238,0-2.477,0-3.832c1.281,0,2.469,0,3.817,0c0-7.812,0-15.508,0-23.203
		c0-1.239,0-2.479,0-3.786c1.313,0,2.537,0,3.859,0c0,1.211,0,2.437,0,3.757c1.318,0,2.543,0,3.877,0c0,1.366,0,2.637,0,3.908
		l0.034-0.032c-1.268,0-2.536,0-3.796,0c0,6.516,0,12.896,0,19.324c1.318,0,2.558,0,3.796,0l-0.034-0.032c0,1.236,0,2.472,0,3.896
		C49.693,55.305,45.843,55.305,41.993,55.305z"/>
	<path fill="#333333" d="M11.158,28.27c-0.014,7.726-0.027,15.451-0.041,23.177c-1.24,0-2.479,0-3.786,0c0-9.015,0-17.951,0-26.96
		c1.204,0,2.426,0,3.827,0C11.158,25.733,11.158,27.001,11.158,28.27z"/>
	<path fill="#333333" d="M18.816,59.146c6.445,0,12.891,0,19.336,0c0,1.24,0,2.479,0,3.786c-6.442,0-12.807,0-19.336,0
		C18.816,61.683,18.816,60.414,18.816,59.146z"/>
	<path fill="#333333" d="M57.407,36.009c1.237,0,2.475,0,3.793,0c0,3.821,0,7.631,0,11.54c-1.261,0-2.527,0-3.793,0l0.032,0.034
		c0-3.869,0-7.739,0-11.608L57.407,36.009z"/>
	<path fill="#333333" d="M53.547,32.148c1.261,0,2.521,0,3.86,0c0,1.339,0,2.6,0,3.859c0,0.001,0.032-0.033,0.032-0.033
		c-1.261,0-2.521,0-3.858,0c0-1.339,0-2.599,0-3.858L53.547,32.148z"/>
	<path fill="#333333" d="M57.407,47.549c0,1.261,0,2.521,0,3.859c-1.34,0-2.6,0-3.86,0l0.034,0.033c0-1.261,0-2.521,0-3.858
		c1.338,0,2.598,0,3.858,0L57.407,47.549z"/>
	<path fill="#333333" d="M11.099,51.429c1.235,0,2.47,0,3.876,0c0,1.349,0,2.612,0,3.876c-1.238,0-2.478,0-3.876,0
		C11.099,53.965,11.099,52.697,11.099,51.429z"/>
	<path fill="#333333" d="M14.958,55.287c1.235,0,2.47,0,3.876,0c0,1.349,0,2.612,0,3.876c-1.238,0-2.478,0-3.876,0
		C14.958,57.823,14.958,56.556,14.958,55.287z"/>
	<path fill="#333333" d="M38.135,59.163c0-1.234,0-2.47,0-3.876c1.349,0,2.612,0,3.876,0c0,1.239,0,2.478,0,3.876
		C40.671,59.163,39.402,59.163,38.135,59.163z"/>
</g>
<g>
	<path fill="#333333" d="M69.451,38.623V26.375h10.207v2.042H81.7v2.042h-2.042v2.041H81.7v4.083h-2.042v2.042H69.451z
		 M77.617,30.458v-2.042h-4.083v2.042H77.617z M77.617,36.581v-4.083h-4.083v4.083H77.617z"/>
	<path fill="#333333" d="M86.802,38.623v-2.042h-2.041V26.375h4.083v10.207h4.083V26.375h4.083v10.207h-2.042v2.042H86.802z"/>
	<path fill="#333333" d="M104.154,38.623v-6.125h-4.083v-6.124h4.083v4.083h4.083v-4.083h4.083v6.124h-4.083v6.125H104.154z"/>
	<path fill="#333333" d="M120.486,38.623V26.375h10.207v2.042h2.042v10.207h-4.083V28.416h-2.042v10.207h-2.041V28.416h-2.042
		v10.207H120.486z"/>
	<path fill="#333333" d="M135.796,38.623V26.375h12.249v2.042h-8.166v2.042h6.124v2.041h-6.124v4.083h8.166v2.042H135.796z"/>
	<path fill="#333333" d="M156.211,38.623V28.416h2.041v-2.042h8.166v2.042h2.042v10.207h-4.083V34.54h-4.083v4.083H156.211z
		 M164.377,32.499v-4.083h-4.083v4.083H164.377z"/>
</g>
<g>
	<path fill="#333333" d="M71.726,57.412v-2.276h-2.275v-9.103h2.275v-2.276h9.104v2.276h2.276v2.275h-4.552v-2.275h-4.552v9.103
		h4.552V52.86h4.552v2.275H80.83v2.276H71.726z"/>
	<path fill="#333333" d="M88.795,57.412v-2.276h-2.275v-9.103h2.275v-2.276h9.104v2.276h2.275v9.103h-2.275v2.276H88.795z
		 M95.622,55.136v-9.103H91.07v9.103H95.622z"/>
	<path fill="#333333" d="M103.588,57.412V43.757h13.655v2.276h-9.104v2.275h6.828v2.276h-6.828v6.827H103.588z"/>
	<path fill="#333333" d="M120.656,57.412V43.757h13.655v2.276h-9.104v2.275h6.827v2.276h-6.827v6.827H120.656z"/>
	<path fill="#333333" d="M137.724,57.412V43.757h13.654v2.276h-9.103v2.275h6.827v2.276h-6.827v4.551h9.103v2.276H137.724z"/>
	<path fill="#333333" d="M154.794,57.412V43.757h13.654v2.276h-9.104v2.275h6.828v2.276h-6.828v4.551h9.104v2.276H154.794z"/>
</g>
</svg>
